<!--<svg viewBox="0 0 16 16" xmlns="http://www.w3.org/2000/svg">-->
<!--    <g transform="translate(0, 1)">-->

<!--    <rect width="2" height="14" fill="#3a3a38"/>-->
<!--    </g>-->
<!--</svg>-->

<svg height="24" viewBox="0 0 6.3499999 6.3500002" width="24" xmlns="http://www.w3.org/2000/svg">
    <g transform="translate(0 -290.64998)">
        <path d="m.79375 292.2375h4.7625v3.96875h-4.7625z" fill="#fafafa"/>
        <path d="m.52916667 291.17917v.52916.52917 3.96875c0 .14658.11800417.26458.26458333.26458h4.7625c.1465792 0 .2645834-.118.2645834-.26458v-3.96875-.52917-.52916h-.2645834-.2645833v.26458h-.5291667v-.26458h-3.175v.26458h-.5291667v-.26458h-.2645833zm.26458333 1.05833h4.7625v3.96875h-4.7625z"
              fill="#3a3a38" stroke-width=".264583"/>
        <g stroke-width=".666667" transform="matrix(.26458333 0 0 .26458333 0 290.65)">
            <path d="m11 8h2v2h-2z" fill="#1e8bcd"/>
            <path d="m14 8h2v2h-2z" fill="#fb983b"/>
            <path d="m17 8h2v2h-2z" fill="#1e8bcd"/>
            <path d="m14 11h2v2h-2z" fill="#1e8bcd"/>
            <path d="m17 11h2v2h-2z" fill="#fb983b"/>
            <path d="m8 8h2v2h-2z" fill="#1e8bcd"/>
            <path d="m5 8h2v2h-2z" fill="#1e8bcd"/>
            <path d="m11 11h2v2h-2z" fill="#1e8bcd"/>
            <path d="m8 11h2v2h-2z" fill="#fb983b"/>
            <path d="m8 14h2v2h-2z" fill="#1e8bcd"/>
            <path d="m11 14h2v2h-2z" fill="#1e8bcd"/>
            <path d="m5 14h2v2h-2z" fill="#fb983b"/>
            <g fill="#1e8bcd">
                <path d="m5 11h2v2h-2z"/>
                <path d="m14 14h2v2h-2z"/>
                <path d="m17 14h2v2h-2z"/>
                <path d="m17 17h2v2h-2z"/>
            </g>
            <path d="m11 17h2v2h-2z" fill="#fb983b"/>
            <path d="m14 17h2v2h-2z" fill="#1e8bcd"/>
            <path d="m8 17h2v2h-2z" fill="#1e8bcd"/>
        </g>
    </g>

<!--    <g transform="rotate(-90, 8, 8) translate(11.2, 2.4) scale(0.15)">-->
<!--        <path d="m8.0039062 15.99999c-.1910194.001317-.3661001-.106308-.4511718-.277343l-7.50000002-15.00000078c-.16516152-.33221931.07625638-.72228303.44726562-.722656h15c.371009.00037269.612428.39043654.447266.722656l-7.5000004 15.00000078c-.0838162.168518-.2551558.275699-.4433594.277343zm-.0039062-1.626953 6.683594-13.3691408h-13.3671878z"-->
<!--              fill="#3a3a38"/>-->
<!--        <path d="m8 14.373037-6.6835938-13.3691408h13.3671878z" fill="#3a3a38"/>-->
<!--    </g>-->
</svg>